<?xml version="1.0" encoding="UTF-8" standalone="no"?>
<svg
   xmlns:dc="http://purl.org/dc/elements/1.1/"
   xmlns:cc="http://creativecommons.org/ns#"
   xmlns:rdf="http://www.w3.org/1999/02/22-rdf-syntax-ns#"
   xmlns:svg="http://www.w3.org/2000/svg"
   xmlns="http://www.w3.org/2000/svg"
   xmlns:sodipodi="http://sodipodi.sourceforge.net/DTD/sodipodi-0.dtd"
   xmlns:inkscape="http://www.inkscape.org/namespaces/inkscape"
   width="274mm"
   height="275mm"
   viewBox="0 0 274 275"
   version="1.1"
   preserveAspectRatio="xMidYMid meet"
   id="svg9"
   sodipodi:docname="toybox_case2.svg"
   inkscape:version="0.92.4 (5da689c313, 2019-01-14)">
  <metadata
     id="metadata15">
    <rdf:RDF>
      <cc:Work
         rdf:about="">
        <dc:format>image/svg+xml</dc:format>
        <dc:type
           rdf:resource="http://purl.org/dc/dcmitype/StillImage" />
        <dc:title></dc:title>
      </cc:Work>
    </rdf:RDF>
  </metadata>
  <defs
     id="defs13" />
  <sodipodi:namedview
     pagecolor="#ffffff"
     bordercolor="#666666"
     borderopacity="1"
     objecttolerance="10"
     gridtolerance="10"
     guidetolerance="10"
     inkscape:pageopacity="0"
     inkscape:pageshadow="2"
     inkscape:window-width="1920"
     inkscape:window-height="986"
     id="namedview11"
     showgrid="false"
     inkscape:document-units="mm"
     showguides="true"
     inkscape:guide-bbox="true"
     inkscape:zoom="2.5688975"
     inkscape:cx="182.89539"
     inkscape:cy="99.303916"
     inkscape:window-x="-11"
     inkscape:window-y="-11"
     inkscape:window-maximized="1"
     inkscape:current-layer="svg9">
    <sodipodi:guide
       position="31.619433,12.359387"
       orientation="0,1"
       id="guide829"
       inkscape:locked="false" />
    <sodipodi:guide
       position="32.958366,21.319943"
       orientation="1,0"
       id="guide831"
       inkscape:locked="false" />
  </sodipodi:namedview>
  <g
     id="svgGroup"
     stroke-linecap="round"
     fill-rule="evenodd"
     font-size="9pt"
     stroke="#000"
     stroke-width="0.25mm"
     fill="none"
     style="stroke:#000;stroke-width:0.25mm;fill:none">
    <path
       d="M 0 229 L 0 242.625 L 3 242.625 L 3 261.375 L 0 261.375 L 0 275 L 23.625 275 L 23.625 272 L 42.375 272 L 42.375 275 L 61.125 275 L 66 275 L 66 261.375 L 63 261.375 L 63 242.625 L 66 242.625 L 66 229 L 42.375 229 L 42.375 232 L 23.625 232 L 23.625 229 L 4.875 229 L 0 229 Z"
       id="front_outsideCutPath"
       stroke="#FF0000"
       stroke-width="0.3"
       style="stroke:#FF0000;stroke-width:0.3"
       vector-effect="non-scaling-stroke" />
    <path
       d="M 72 229 L 72 242.625 L 69 242.625 L 69 261.375 L 72 261.375 L 72 275 L 90.125 275 L 90.125 272 L 108.875 272 L 108.875 275 L 127.625 275 L 127.625 272 L 146.375 272 L 146.375 275 L 165.125 275 L 165.125 272 L 183.875 272 L 183.875 275 L 202 275 L 202 261.375 L 205 261.375 L 205 242.625 L 202 242.625 L 202 229 L 183.875 229 L 183.875 232 L 165.125 232 L 165.125 229 L 146.375 229 L 146.375 232 L 127.625 232 L 127.625 229 L 108.875 229 L 108.875 232 L 90.125 232 L 90.125 229 L 72 229 Z"
       id="left_outsideCutPath"
       stroke="#FF0000"
       stroke-width="0.3"
       style="stroke:#FF0000;stroke-width:0.3"
       vector-effect="non-scaling-stroke" />
    <path
       d="M 211 142 L 211 160.125 L 208 160.125 L 208 178.875 L 211 178.875 L 211 197.625 L 208 197.625 L 208 216.375 L 211 216.375 L 211 235.125 L 208 235.125 L 208 253.875 L 211 253.875 L 211 272 L 231.625 272 L 231.625 275 L 250.375 275 L 250.375 272 L 269.125 272 L 271 272 L 271 253.875 L 274 253.875 L 274 235.125 L 271 235.125 L 271 216.375 L 274 216.375 L 274 197.625 L 271 197.625 L 271 178.875 L 274 178.875 L 274 160.125 L 271 160.125 L 271 142 L 250.375 142 L 250.375 139 L 231.625 139 L 231.625 142 L 212.875 142 L 211 142 Z"
       id="top_outsideCutPath"
       stroke="#FF0000"
       stroke-width="0.3"
       style="stroke:#FF0000;stroke-width:0.3"
       vector-effect="non-scaling-stroke" />
    <path
       d="M 0 180 L 0 193.625 L 3 193.625 L 3 212.375 L 0 212.375 L 0 226 L 23.625 226 L 23.625 223 L 42.375 223 L 42.375 226 L 61.125 226 L 66 226 L 66 212.375 L 63 212.375 L 63 193.625 L 66 193.625 L 66 180 L 42.375 180 L 42.375 183 L 23.625 183 L 23.625 180 L 4.875 180 L 0 180 Z"
       id="back_outsideCutPath"
       stroke="#FF0000"
       stroke-width="0.3"
       style="stroke:#FF0000;stroke-width:0.3"
       vector-effect="non-scaling-stroke" />
    <path
       d="M 72 180 L 72 193.625 L 69 193.625 L 69 212.375 L 72 212.375 L 72 226 L 90.125 226 L 90.125 223 L 108.875 223 L 108.875 226 L 127.625 226 L 127.625 223 L 146.375 223 L 146.375 226 L 165.125 226 L 165.125 223 L 183.875 223 L 183.875 226 L 202 226 L 202 212.375 L 205 212.375 L 205 193.625 L 202 193.625 L 202 180 L 183.875 180 L 183.875 183 L 165.125 183 L 165.125 180 L 146.375 180 L 146.375 183 L 127.625 183 L 127.625 180 L 108.875 180 L 108.875 183 L 90.125 183 L 90.125 180 L 72 180 Z"
       id="right_outsideCutPath"
       stroke="#FF0000"
       stroke-width="0.3"
       style="stroke:#FF0000;stroke-width:0.3"
       vector-effect="non-scaling-stroke" />
    <path
       d="M 211 3 L 211 21.125 L 208 21.125 L 208 39.875 L 211 39.875 L 211 58.625 L 208 58.625 L 208 77.375 L 211 77.375 L 211 96.125 L 208 96.125 L 208 114.875 L 211 114.875 L 211 133 L 231.625 133 L 231.625 136 L 250.375 136 L 250.375 133 L 269.125 133 L 271 133 L 271 114.875 L 274 114.875 L 274 96.125 L 271 96.125 L 271 77.375 L 274 77.375 L 274 58.625 L 271 58.625 L 271 39.875 L 274 39.875 L 274 21.125 L 271 21.125 L 271 3 L 250.375 3 L 250.375 0 L 231.625 0 L 231.625 3 L 212.875 3 L 211 3 Z"
       id="bottom_outsideCutPath"
       stroke="#FF0000"
       stroke-width="0.3"
       style="stroke:#FF0000;stroke-width:0.3"
       vector-effect="non-scaling-stroke" />
  </g>
  <circle
     style="fill:none;stroke:#ff0000;stroke-width:0.32499999;stroke-miterlimit:4;stroke-dasharray:none;stroke-opacity:1"
     id="path825"
     cx="32.494888"
     cy="194.57379"
     r="3.0383494" />
  <rect
     style="fill:none;stroke:#ff0000;stroke-width:0.32499999;stroke-miterlimit:4;stroke-dasharray:none;stroke-opacity:1"
     id="rect827"
     width="14.831265"
     height="9.9905043"
     x="25.425547"
     y="252.6501" />
</svg>
