<?xml version="1.0" encoding="UTF-8" standalone="no"?>
<svg
   xmlns:dc="http://purl.org/dc/elements/1.1/"
   xmlns:cc="http://creativecommons.org/ns#"
   xmlns:rdf="http://www.w3.org/1999/02/22-rdf-syntax-ns#"
   xmlns:svg="http://www.w3.org/2000/svg"
   xmlns="http://www.w3.org/2000/svg"
   xmlns:sodipodi="http://sodipodi.sourceforge.net/DTD/sodipodi-0.dtd"
   xmlns:inkscape="http://www.inkscape.org/namespaces/inkscape"
   width="227mm"
   height="201mm"
   viewBox="0 0 227 201"
   version="1.1"
   preserveAspectRatio="xMidYMid meet"
   id="svg3807"
   sodipodi:docname="toybox_case.svg"
   inkscape:version="0.92.4 (5da689c313, 2019-01-14)">
  <metadata
     id="metadata3813">
    <rdf:RDF>
      <cc:Work
         rdf:about="">
        <dc:format>image/svg+xml</dc:format>
        <dc:type
           rdf:resource="http://purl.org/dc/dcmitype/StillImage" />
        <dc:title></dc:title>
      </cc:Work>
    </rdf:RDF>
  </metadata>
  <defs
     id="defs3811" />
  <sodipodi:namedview
     pagecolor="#ffffff"
     bordercolor="#666666"
     borderopacity="1"
     objecttolerance="10"
     gridtolerance="10"
     guidetolerance="10"
     inkscape:pageopacity="0"
     inkscape:pageshadow="2"
     inkscape:window-width="1920"
     inkscape:window-height="986"
     id="namedview3809"
     showgrid="false"
     showguides="true"
     inkscape:lockguides="false"
     inkscape:guide-bbox="true"
     inkscape:document-units="mm"
     inkscape:zoom="2.4852405"
     inkscape:cx="237.37079"
     inkscape:cy="185.76294"
     inkscape:window-x="-11"
     inkscape:window-y="-11"
     inkscape:window-maximized="1"
     inkscape:current-layer="svg3807">
    <sodipodi:guide
       position="30.022245,80.59163"
       orientation="1,0"
       id="guide3815"
       inkscape:locked="false" />
    <sodipodi:guide
       position="11.817267,-6.6006355"
       orientation="1,0"
       id="guide4631"
       inkscape:locked="false" />
  </sodipodi:namedview>
  <g
     id="svgGroup"
     font-size="9pt"
     style="font-size:12px;fill:none;fill-rule:evenodd;stroke:#000000;stroke-width:0.25000001mm;stroke-linecap:round">
    <path
       d="m 0,155 v 16.625 h 3 v 12.75 H 0 v 12.75 3.875 h 11.375 v -3 h 12.75 v 3 h 12.75 v -3 h 12.75 v 3 H 61 v -16.625 h -3 v -12.75 h 3 V 158.875 155 H 49.625 v 3 h -12.75 v -3 h -12.75 v 3 h -12.75 v -3 z"
       id="front_outsideCutPath"
       style="vector-effect:non-scaling-stroke;stroke:#ff0000;stroke-width:0.30000001"
       inkscape:connector-curvature="0" />
    <path
       d="m 67,155 v 16.625 h -3 v 12.75 h 3 v 12.75 3.875 h 14.625 v -3 h 12.75 v 3 h 12.75 v -3 h 12.75 v 3 h 12.75 v -3 h 12.75 v 3 h 12.75 1.875 v -16.625 h 3 v -12.75 h -3 V 158.875 155 h -14.625 v 3 h -12.75 v -3 h -12.75 v 3 h -12.75 v -3 h -12.75 v 3 h -12.75 v -3 h -12.75 z"
       id="left_outsideCutPath"
       style="vector-effect:non-scaling-stroke;stroke:#ff0000;stroke-width:0.30000001"
       inkscape:connector-curvature="0" />
    <path
       d="m 169,105 v 14.625 h -3 v 12.75 h 3 v 12.75 h -3 v 12.75 h 3 v 12.75 h -3 v 12.75 h 3 v 12.75 1.875 h 8.375 v 3 h 12.75 v -3 h 12.75 v 3 h 12.75 v -3 H 224 v -14.625 h 3 v -12.75 h -3 v -12.75 h 3 v -12.75 h -3 v -12.75 h 3 v -12.75 h -3 V 106.875 105 h -8.375 v -3 h -12.75 v 3 h -12.75 v -3 h -12.75 v 3 z"
       id="top_outsideCutPath"
       style="vector-effect:non-scaling-stroke;stroke:#ff0000;stroke-width:0.30000001"
       inkscape:connector-curvature="0" />
    <path
       d="m 0,106 v 16.625 h 3 v 12.75 H 0 v 12.75 3.875 h 11.375 v -3 h 12.75 v 3 h 12.75 v -3 h 12.75 v 3 H 61 v -16.625 h -3 v -12.75 h 3 V 109.875 106 H 49.625 v 3 h -12.75 v -3 h -12.75 v 3 h -12.75 v -3 z"
       id="back_outsideCutPath"
       style="vector-effect:non-scaling-stroke;stroke:#ff0000;stroke-width:0.30000001"
       inkscape:connector-curvature="0" />
    <path
       d="m 67,106 v 16.625 h -3 v 12.75 h 3 v 12.75 3.875 h 14.625 v -3 h 12.75 v 3 h 12.75 v -3 h 12.75 v 3 h 12.75 v -3 h 12.75 v 3 h 12.75 1.875 v -16.625 h 3 v -12.75 h -3 V 109.875 106 h -14.625 v 3 h -12.75 v -3 h -12.75 v 3 h -12.75 v -3 h -12.75 v 3 h -12.75 v -3 h -12.75 z"
       id="right_outsideCutPath"
       style="vector-effect:non-scaling-stroke;stroke:#ff0000;stroke-width:0.30000001"
       inkscape:connector-curvature="0" />
    <path
       d="m 169,3 v 14.625 h -3 v 12.75 h 3 v 12.75 h -3 v 12.75 h 3 v 12.75 h -3 v 12.75 h 3 V 94.125 96 h 8.375 v 3 h 12.75 v -3 h 12.75 v 3 h 12.75 V 96 H 224 V 81.375 h 3 v -12.75 h -3 v -12.75 h 3 v -12.75 h -3 v -12.75 h 3 v -12.75 h -3 V 4.875 3 h -8.375 V 0 h -12.75 v 3 h -12.75 V 0 h -12.75 v 3 z"
       id="bottom_outsideCutPath"
       style="vector-effect:non-scaling-stroke;stroke:#ff0000;stroke-width:0.30000001"
       inkscape:connector-curvature="0" />
  </g>
  <circle
     id="path3820"
     cx="30.181938"
     cy="115.24497"
     r="2.5018539"
     style="fill:none;stroke-width:0.26458332;stroke:#ff0000;stroke-opacity:1" />
  <rect
     style="fill:none;stroke-width:0.325;stroke:#ff0000;stroke-opacity:1;stroke-miterlimit:4;stroke-dasharray:none"
     id="rect4629"
     width="12.750001"
     height="7.0264778"
     x="24.125"
     y="193.97353" />
</svg>
