0
SECTION
2
HEADER
9
$INSUNITS
70
1
0
ENDSEC
0
SECTION
2
TABLES
0
TABLE
2
LAYER
0
ENDTAB
0
ENDSEC
0
SECTION
2
ENTITIES
0
LINE
8
front_outsideCutPath
10
0
20
49
11
0
21
32.375
0
LINE
8
front_outsideCutPath
10
0
20
32.375
11
3
21
32.375
0
LINE
8
front_outsideCutPath
10
3
20
32.375
11
3
21
19.625
0
LINE
8
front_outsideCutPath
10
3
20
19.625
11
0
21
19.625
0
LINE
8
front_outsideCutPath
10
0
20
19.625
11
0
21
6.875
0
LINE
8
front_outsideCutPath
10
0
20
6.875
11
0
21
3
0
LINE
8
front_outsideCutPath
10
0
20
3
11
11.375
21
3
0
LINE
8
front_outsideCutPath
10
11.375
20
3
11
11.375
21
6
0
LINE
8
front_outsideCutPath
10
11.375
20
6
11
24.125
21
6
0
LINE
8
front_outsideCutPath
10
24.125
20
6
11
24.125
21
3
0
LINE
8
front_outsideCutPath
10
24.125
20
3
11
36.875
21
3
0
LINE
8
front_outsideCutPath
10
36.875
20
3
11
36.875
21
6
0
LINE
8
front_outsideCutPath
10
36.875
20
6
11
49.625
21
6
0
LINE
8
front_outsideCutPath
10
49.625
20
6
11
49.625
21
3
0
LINE
8
front_outsideCutPath
10
49.625
20
3
11
61
21
3
0
LINE
8
front_outsideCutPath
10
61
20
3
11
61
21
19.625
0
LINE
8
front_outsideCutPath
10
61
20
19.625
11
58
21
19.625
0
LINE
8
front_outsideCutPath
10
58
20
19.625
11
58
21
32.375
0
LINE
8
front_outsideCutPath
10
58
20
32.375
11
61
21
32.375
0
LINE
8
front_outsideCutPath
10
61
20
32.375
11
61
21
45.125
0
LINE
8
front_outsideCutPath
10
61
20
45.125
11
61
21
49
0
LINE
8
front_outsideCutPath
10
61
20
49
11
49.625
21
49
0
LINE
8
front_outsideCutPath
10
49.625
20
49
11
49.625
21
46
0
LINE
8
front_outsideCutPath
10
49.625
20
46
11
36.875
21
46
0
LINE
8
front_outsideCutPath
10
36.875
20
46
11
36.875
21
49
0
LINE
8
front_outsideCutPath
10
36.875
20
49
11
24.125
21
49
0
LINE
8
front_outsideCutPath
10
24.125
20
49
11
24.125
21
46
0
LINE
8
front_outsideCutPath
10
24.125
20
46
11
11.375
21
46
0
LINE
8
front_outsideCutPath
10
11.375
20
46
11
11.375
21
49
0
LINE
8
front_outsideCutPath
10
11.375
20
49
11
0
21
49
0
LINE
8
left_outsideCutPath
10
67
20
49
11
67
21
32.375
0
LINE
8
left_outsideCutPath
10
67
20
32.375
11
64
21
32.375
0
LINE
8
left_outsideCutPath
10
64
20
32.375
11
64
21
19.625
0
LINE
8
left_outsideCutPath
10
64
20
19.625
11
67
21
19.625
0
LINE
8
left_outsideCutPath
10
67
20
19.625
11
67
21
6.875
0
LINE
8
left_outsideCutPath
10
67
20
6.875
11
67
21
3
0
LINE
8
left_outsideCutPath
10
67
20
3
11
81.625
21
3
0
LINE
8
left_outsideCutPath
10
81.625
20
3
11
81.625
21
6
0
LINE
8
left_outsideCutPath
10
81.625
20
6
11
94.375
21
6
0
LINE
8
left_outsideCutPath
10
94.375
20
6
11
94.375
21
3
0
LINE
8
left_outsideCutPath
10
94.375
20
3
11
107.125
21
3
0
LINE
8
left_outsideCutPath
10
107.125
20
3
11
107.125
21
6
0
LINE
8
left_outsideCutPath
10
107.125
20
6
11
119.875
21
6
0
LINE
8
left_outsideCutPath
10
119.875
20
6
11
119.875
21
3
0
LINE
8
left_outsideCutPath
10
119.875
20
3
11
132.625
21
3
0
LINE
8
left_outsideCutPath
10
132.625
20
3
11
132.625
21
6
0
LINE
8
left_outsideCutPath
10
132.625
20
6
11
145.375
21
6
0
LINE
8
left_outsideCutPath
10
145.375
20
6
11
145.375
21
3
0
LINE
8
left_outsideCutPath
10
145.375
20
3
11
158.125
21
3
0
LINE
8
left_outsideCutPath
10
158.125
20
3
11
160
21
3
0
LINE
8
left_outsideCutPath
10
160
20
3
11
160
21
19.625
0
LINE
8
left_outsideCutPath
10
160
20
19.625
11
163
21
19.625
0
LINE
8
left_outsideCutPath
10
163
20
19.625
11
163
21
32.375
0
LINE
8
left_outsideCutPath
10
163
20
32.375
11
160
21
32.375
0
LINE
8
left_outsideCutPath
10
160
20
32.375
11
160
21
45.125
0
LINE
8
left_outsideCutPath
10
160
20
45.125
11
160
21
49
0
LINE
8
left_outsideCutPath
10
160
20
49
11
145.375
21
49
0
LINE
8
left_outsideCutPath
10
145.375
20
49
11
145.375
21
46
0
LINE
8
left_outsideCutPath
10
145.375
20
46
11
132.625
21
46
0
LINE
8
left_outsideCutPath
10
132.625
20
46
11
132.625
21
49
0
LINE
8
left_outsideCutPath
10
132.625
20
49
11
119.875
21
49
0
LINE
8
left_outsideCutPath
10
119.875
20
49
11
119.875
21
46
0
LINE
8
left_outsideCutPath
10
119.875
20
46
11
107.125
21
46
0
LINE
8
left_outsideCutPath
10
107.125
20
46
11
107.125
21
49
0
LINE
8
left_outsideCutPath
10
107.125
20
49
11
94.375
21
49
0
LINE
8
left_outsideCutPath
10
94.375
20
49
11
94.375
21
46
0
LINE
8
left_outsideCutPath
10
94.375
20
46
11
81.625
21
46
0
LINE
8
left_outsideCutPath
10
81.625
20
46
11
81.625
21
49
0
LINE
8
left_outsideCutPath
10
81.625
20
49
11
68.875
21
49
0
LINE
8
left_outsideCutPath
10
68.875
20
49
11
67
21
49
0
LINE
8
top_outsideCutPath
10
169
20
99
11
169
21
84.375
0
LINE
8
top_outsideCutPath
10
169
20
84.375
11
166
21
84.375
0
LINE
8
top_outsideCutPath
10
166
20
84.375
11
166
21
71.625
0
LINE
8
top_outsideCutPath
10
166
20
71.625
11
169
21
71.625
0
LINE
8
top_outsideCutPath
10
169
20
71.625
11
169
21
58.875
0
LINE
8
top_outsideCutPath
10
169
20
58.875
11
166
21
58.875
0
LINE
8
top_outsideCutPath
10
166
20
58.875
11
166
21
46.125
0
LINE
8
top_outsideCutPath
10
166
20
46.125
11
169
21
46.125
0
LINE
8
top_outsideCutPath
10
169
20
46.125
11
169
21
33.375
0
LINE
8
top_outsideCutPath
10
169
20
33.375
11
166
21
33.375
0
LINE
8
top_outsideCutPath
10
166
20
33.375
11
166
21
20.625
0
LINE
8
top_outsideCutPath
10
166
20
20.625
11
169
21
20.625
0
LINE
8
top_outsideCutPath
10
169
20
20.625
11
169
21
7.875
0
LINE
8
top_outsideCutPath
10
169
20
7.875
11
169
21
6
0
LINE
8
top_outsideCutPath
10
169
20
6
11
177.375
21
6
0
LINE
8
top_outsideCutPath
10
177.375
20
6
11
177.375
21
3
0
LINE
8
top_outsideCutPath
10
177.375
20
3
11
190.125
21
3
0
LINE
8
top_outsideCutPath
10
190.125
20
3
11
190.125
21
6
0
LINE
8
top_outsideCutPath
10
190.125
20
6
11
202.875
21
6
0
LINE
8
top_outsideCutPath
10
202.875
20
6
11
202.875
21
3
0
LINE
8
top_outsideCutPath
10
202.875
20
3
11
215.625
21
3
0
LINE
8
top_outsideCutPath
10
215.625
20
3
11
215.625
21
6
0
LINE
8
top_outsideCutPath
10
215.625
20
6
11
224
21
6
0
LINE
8
top_outsideCutPath
10
224
20
6
11
224
21
20.625
0
LINE
8
top_outsideCutPath
10
224
20
20.625
11
227
21
20.625
0
LINE
8
top_outsideCutPath
10
227
20
20.625
11
227
21
33.375
0
LINE
8
top_outsideCutPath
10
227
20
33.375
11
224
21
33.375
0
LINE
8
top_outsideCutPath
10
224
20
33.375
11
224
21
46.125
0
LINE
8
top_outsideCutPath
10
224
20
46.125
11
227
21
46.125
0
LINE
8
top_outsideCutPath
10
227
20
46.125
11
227
21
58.875
0
LINE
8
top_outsideCutPath
10
227
20
58.875
11
224
21
58.875
0
LINE
8
top_outsideCutPath
10
224
20
58.875
11
224
21
71.625
0
LINE
8
top_outsideCutPath
10
224
20
71.625
11
227
21
71.625
0
LINE
8
top_outsideCutPath
10
227
20
71.625
11
227
21
84.375
0
LINE
8
top_outsideCutPath
10
227
20
84.375
11
224
21
84.375
0
LINE
8
top_outsideCutPath
10
224
20
84.375
11
224
21
97.125
0
LINE
8
top_outsideCutPath
10
224
20
97.125
11
224
21
99
0
LINE
8
top_outsideCutPath
10
224
20
99
11
215.625
21
99
0
LINE
8
top_outsideCutPath
10
215.625
20
99
11
215.625
21
102
0
LINE
8
top_outsideCutPath
10
215.625
20
102
11
202.875
21
102
0
LINE
8
top_outsideCutPath
10
202.875
20
102
11
202.875
21
99
0
LINE
8
top_outsideCutPath
10
202.875
20
99
11
190.125
21
99
0
LINE
8
top_outsideCutPath
10
190.125
20
99
11
190.125
21
102
0
LINE
8
top_outsideCutPath
10
190.125
20
102
11
177.375
21
102
0
LINE
8
top_outsideCutPath
10
177.375
20
102
11
177.375
21
99
0
LINE
8
top_outsideCutPath
10
177.375
20
99
11
169
21
99
0
LINE
8
back_outsideCutPath
10
0
20
98
11
0
21
81.375
0
LINE
8
back_outsideCutPath
10
0
20
81.375
11
3
21
81.375
0
LINE
8
back_outsideCutPath
10
3
20
81.375
11
3
21
68.625
0
LINE
8
back_outsideCutPath
10
3
20
68.625
11
0
21
68.625
0
LINE
8
back_outsideCutPath
10
0
20
68.625
11
0
21
55.875
0
LINE
8
back_outsideCutPath
10
0
20
55.875
11
0
21
52
0
LINE
8
back_outsideCutPath
10
0
20
52
11
11.375
21
52
0
LINE
8
back_outsideCutPath
10
11.375
20
52
11
11.375
21
55
0
LINE
8
back_outsideCutPath
10
11.375
20
55
11
24.125
21
55
0
LINE
8
back_outsideCutPath
10
24.125
20
55
11
24.125
21
52
0
LINE
8
back_outsideCutPath
10
24.125
20
52
11
36.875
21
52
0
LINE
8
back_outsideCutPath
10
36.875
20
52
11
36.875
21
55
0
LINE
8
back_outsideCutPath
10
36.875
20
55
11
49.625
21
55
0
LINE
8
back_outsideCutPath
10
49.625
20
55
11
49.625
21
52
0
LINE
8
back_outsideCutPath
10
49.625
20
52
11
61
21
52
0
LINE
8
back_outsideCutPath
10
61
20
52
11
61
21
68.625
0
LINE
8
back_outsideCutPath
10
61
20
68.625
11
58
21
68.625
0
LINE
8
back_outsideCutPath
10
58
20
68.625
11
58
21
81.375
0
LINE
8
back_outsideCutPath
10
58
20
81.375
11
61
21
81.375
0
LINE
8
back_outsideCutPath
10
61
20
81.375
11
61
21
94.125
0
LINE
8
back_outsideCutPath
10
61
20
94.125
11
61
21
98
0
LINE
8
back_outsideCutPath
10
61
20
98
11
49.625
21
98
0
LINE
8
back_outsideCutPath
10
49.625
20
98
11
49.625
21
95
0
LINE
8
back_outsideCutPath
10
49.625
20
95
11
36.875
21
95
0
LINE
8
back_outsideCutPath
10
36.875
20
95
11
36.875
21
98
0
LINE
8
back_outsideCutPath
10
36.875
20
98
11
24.125
21
98
0
LINE
8
back_outsideCutPath
10
24.125
20
98
11
24.125
21
95
0
LINE
8
back_outsideCutPath
10
24.125
20
95
11
11.375
21
95
0
LINE
8
back_outsideCutPath
10
11.375
20
95
11
11.375
21
98
0
LINE
8
back_outsideCutPath
10
11.375
20
98
11
0
21
98
0
LINE
8
right_outsideCutPath
10
67
20
98
11
67
21
81.375
0
LINE
8
right_outsideCutPath
10
67
20
81.375
11
64
21
81.375
0
LINE
8
right_outsideCutPath
10
64
20
81.375
11
64
21
68.625
0
LINE
8
right_outsideCutPath
10
64
20
68.625
11
67
21
68.625
0
LINE
8
right_outsideCutPath
10
67
20
68.625
11
67
21
55.875
0
LINE
8
right_outsideCutPath
10
67
20
55.875
11
67
21
52
0
LINE
8
right_outsideCutPath
10
67
20
52
11
81.625
21
52
0
LINE
8
right_outsideCutPath
10
81.625
20
52
11
81.625
21
55
0
LINE
8
right_outsideCutPath
10
81.625
20
55
11
94.375
21
55
0
LINE
8
right_outsideCutPath
10
94.375
20
55
11
94.375
21
52
0
LINE
8
right_outsideCutPath
10
94.375
20
52
11
107.125
21
52
0
LINE
8
right_outsideCutPath
10
107.125
20
52
11
107.125
21
55
0
LINE
8
right_outsideCutPath
10
107.125
20
55
11
119.875
21
55
0
LINE
8
right_outsideCutPath
10
119.875
20
55
11
119.875
21
52
0
LINE
8
right_outsideCutPath
10
119.875
20
52
11
132.625
21
52
0
LINE
8
right_outsideCutPath
10
132.625
20
52
11
132.625
21
55
0
LINE
8
right_outsideCutPath
10
132.625
20
55
11
145.375
21
55
0
LINE
8
right_outsideCutPath
10
145.375
20
55
11
145.375
21
52
0
LINE
8
right_outsideCutPath
10
145.375
20
52
11
158.125
21
52
0
LINE
8
right_outsideCutPath
10
158.125
20
52
11
160
21
52
0
LINE
8
right_outsideCutPath
10
160
20
52
11
160
21
68.625
0
LINE
8
right_outsideCutPath
10
160
20
68.625
11
163
21
68.625
0
LINE
8
right_outsideCutPath
10
163
20
68.625
11
163
21
81.375
0
LINE
8
right_outsideCutPath
10
163
20
81.375
11
160
21
81.375
0
LINE
8
right_outsideCutPath
10
160
20
81.375
11
160
21
94.125
0
LINE
8
right_outsideCutPath
10
160
20
94.125
11
160
21
98
0
LINE
8
right_outsideCutPath
10
160
20
98
11
145.375
21
98
0
LINE
8
right_outsideCutPath
10
145.375
20
98
11
145.375
21
95
0
LINE
8
right_outsideCutPath
10
145.375
20
95
11
132.625
21
95
0
LINE
8
right_outsideCutPath
10
132.625
20
95
11
132.625
21
98
0
LINE
8
right_outsideCutPath
10
132.625
20
98
11
119.875
21
98
0
LINE
8
right_outsideCutPath
10
119.875
20
98
11
119.875
21
95
0
LINE
8
right_outsideCutPath
10
119.875
20
95
11
107.125
21
95
0
LINE
8
right_outsideCutPath
10
107.125
20
95
11
107.125
21
98
0
LINE
8
right_outsideCutPath
10
107.125
20
98
11
94.375
21
98
0
LINE
8
right_outsideCutPath
10
94.375
20
98
11
94.375
21
95
0
LINE
8
right_outsideCutPath
10
94.375
20
95
11
81.625
21
95
0
LINE
8
right_outsideCutPath
10
81.625
20
95
11
81.625
21
98
0
LINE
8
right_outsideCutPath
10
81.625
20
98
11
68.875
21
98
0
LINE
8
right_outsideCutPath
10
68.875
20
98
11
67
21
98
0
LINE
8
bottom_outsideCutPath
10
169
20
201
11
169
21
186.375
0
LINE
8
bottom_outsideCutPath
10
169
20
186.375
11
166
21
186.375
0
LINE
8
bottom_outsideCutPath
10
166
20
186.375
11
166
21
173.625
0
LINE
8
bottom_outsideCutPath
10
166
20
173.625
11
169
21
173.625
0
LINE
8
bottom_outsideCutPath
10
169
20
173.625
11
169
21
160.875
0
LINE
8
bottom_outsideCutPath
10
169
20
160.875
11
166
21
160.875
0
LINE
8
bottom_outsideCutPath
10
166
20
160.875
11
166
21
148.125
0
LINE
8
bottom_outsideCutPath
10
166
20
148.125
11
169
21
148.125
0
LINE
8
bottom_outsideCutPath
10
169
20
148.125
11
169
21
135.375
0
LINE
8
bottom_outsideCutPath
10
169
20
135.375
11
166
21
135.375
0
LINE
8
bottom_outsideCutPath
10
166
20
135.375
11
166
21
122.625
0
LINE
8
bottom_outsideCutPath
10
166
20
122.625
11
169
21
122.625
0
LINE
8
bottom_outsideCutPath
10
169
20
122.625
11
169
21
109.875
0
LINE
8
bottom_outsideCutPath
10
169
20
109.875
11
169
21
108
0
LINE
8
bottom_outsideCutPath
10
169
20
108
11
177.375
21
108
0
LINE
8
bottom_outsideCutPath
10
177.375
20
108
11
177.375
21
105
0
LINE
8
bottom_outsideCutPath
10
177.375
20
105
11
190.125
21
105
0
LINE
8
bottom_outsideCutPath
10
190.125
20
105
11
190.125
21
108
0
LINE
8
bottom_outsideCutPath
10
190.125
20
108
11
202.875
21
108
0
LINE
8
bottom_outsideCutPath
10
202.875
20
108
11
202.875
21
105
0
LINE
8
bottom_outsideCutPath
10
202.875
20
105
11
215.625
21
105
0
LINE
8
bottom_outsideCutPath
10
215.625
20
105
11
215.625
21
108
0
LINE
8
bottom_outsideCutPath
10
215.625
20
108
11
224
21
108
0
LINE
8
bottom_outsideCutPath
10
224
20
108
11
224
21
122.625
0
LINE
8
bottom_outsideCutPath
10
224
20
122.625
11
227
21
122.625
0
LINE
8
bottom_outsideCutPath
10
227
20
122.625
11
227
21
135.375
0
LINE
8
bottom_outsideCutPath
10
227
20
135.375
11
224
21
135.375
0
LINE
8
bottom_outsideCutPath
10
224
20
135.375
11
224
21
148.125
0
LINE
8
bottom_outsideCutPath
10
224
20
148.125
11
227
21
148.125
0
LINE
8
bottom_outsideCutPath
10
227
20
148.125
11
227
21
160.875
0
LINE
8
bottom_outsideCutPath
10
227
20
160.875
11
224
21
160.875
0
LINE
8
bottom_outsideCutPath
10
224
20
160.875
11
224
21
173.625
0
LINE
8
bottom_outsideCutPath
10
224
20
173.625
11
227
21
173.625
0
LINE
8
bottom_outsideCutPath
10
227
20
173.625
11
227
21
186.375
0
LINE
8
bottom_outsideCutPath
10
227
20
186.375
11
224
21
186.375
0
LINE
8
bottom_outsideCutPath
10
224
20
186.375
11
224
21
199.125
0
LINE
8
bottom_outsideCutPath
10
224
20
199.125
11
224
21
201
0
LINE
8
bottom_outsideCutPath
10
224
20
201
11
215.625
21
201
0
LINE
8
bottom_outsideCutPath
10
215.625
20
201
11
215.625
21
204
0
LINE
8
bottom_outsideCutPath
10
215.625
20
204
11
202.875
21
204
0
LINE
8
bottom_outsideCutPath
10
202.875
20
204
11
202.875
21
201
0
LINE
8
bottom_outsideCutPath
10
202.875
20
201
11
190.125
21
201
0
LINE
8
bottom_outsideCutPath
10
190.125
20
201
11
190.125
21
204
0
LINE
8
bottom_outsideCutPath
10
190.125
20
204
11
177.375
21
204
0
LINE
8
bottom_outsideCutPath
10
177.375
20
204
11
177.375
21
201
0
LINE
8
bottom_outsideCutPath
10
177.375
20
201
11
169
21
201
0
ENDSEC
0
EOF